<svg xmlns="http://www.w3.org/2000/svg" viewBox="0 0 183 61.24"><defs><style>.cls-1,.cls-4{fill:#00aa95;}.cls-2{fill:#a5e887;}.cls-3{fill:#00cc76;}.cls-4{font-size:44px;stroke:#00aa95;stroke-miterlimit:10;stroke-width:0.75px;font-family:MyriadPro-Regular, Myriad Pro;letter-spacing:0.02em;}.cls-5{letter-spacing:0.02em;}.cls-6{letter-spacing:0.02em;}.cls-7{letter-spacing:0.03em;}</style></defs><title>Asset 2</title><g id="Layer_2" data-name="Layer 2"><g id="Layer_1-2" data-name="Layer 1"><path class="cls-1" d="M56.22,27.37s-4.74-8.54-4.33-11c0-2.46,1.17-5.15,3.74-8.54S60.2,4.21,63.35,0c3,4.56,3.86,4.8,5.85,9.94S56.22,27.37,56.22,27.37Z"/><path class="cls-2" d="M56.8,27.26S68.38,22.11,74.47,6c-9.6,3.39-13.81,3-17.08,9S56.45,27.49,56.8,27.26Z"/><path class="cls-3" d="M56.22,27.37S70.49,17.2,74.47,6C80.2,30,56.22,27.37,56.22,27.37Z"/><text class="cls-4" transform="translate(0.37 49.86)">G<tspan class="cls-5" x="29.52" y="0">r</tspan><tspan x="44.57" y="0">o</tspan><tspan class="cls-6" x="69.83" y="0">c</tspan><tspan x="90.38" y="0">e</tspan><tspan class="cls-7" x="113.52" y="0">r</tspan><tspan x="129.18" y="0">ies</tspan></text></g></g></svg>