<?xml version="1.0" ?><!DOCTYPE svg  PUBLIC '-//W3C//DTD SVG 1.1//EN'  'http://www.w3.org/Graphics/SVG/1.1/DTD/svg11.dtd'><svg height="100%" style="fill-rule:evenodd;clip-rule:evenodd;stroke-linejoin:round;stroke-miterlimit:2;" version="1.1" viewBox="0 0 32 32" width="100%" xml:space="preserve" xmlns="http://www.w3.org/2000/svg" xmlns:serif="http://www.serif.com/" xmlns:xlink="http://www.w3.org/1999/xlink"><path d="M15,10.034c-2.681,0.188 -5.169,1.133 -7.271,2.283l-3.022,-3.024c-0.39,-0.39 -1.023,-0.391 -1.414,-0c-0.39,0.39 -0.391,1.023 -0,1.414l2.671,2.674c-2.713,1.788 -4.484,3.666 -4.714,3.916c-0.002,0.003 -0.004,0.005 -0.006,0.007c-0.269,0.299 -0.336,0.729 -0.172,1.096c0.062,0.136 7.303,7.6 14.928,7.6c8.121,-0 14.732,-7.318 14.74,-7.327c0.197,-0.216 0.289,-0.508 0.252,-0.799c-0.036,-0.288 -2.995,-3.286 -5.883,-5.032l3.132,-3.135c0.39,-0.391 0.39,-1.024 -0,-1.414c-0.391,-0.391 -1.025,-0.39 -1.415,0l-3.533,3.538c-0.004,0.003 -0.008,0.007 -0.012,0.011c-1.875,-0.918 -4.008,-1.632 -6.281,-1.803l-0,-4.039c0,-0.552 -0.448,-1 -1,-1c-0.552,-0 -1,0.448 -1,1l-0,4.034Zm0.983,1.966c0.036,0 0.072,0 0.108,0.001c3.27,0.049 5.909,2.718 5.909,5.999c-0,3.311 -2.689,6 -6,6c-3.311,0 -6,-2.689 -6,-6c-0,-3.306 2.679,-5.99 5.983,-6Zm-6.764,1.756c-2.726,1.382 -4.823,3.234 -5.843,4.227c0.992,0.972 3.089,2.837 5.826,4.235c-0.762,-1.225 -1.202,-2.67 -1.202,-4.218c-0,-1.559 0.447,-3.014 1.219,-4.244Zm13.596,0.055c0.751,1.218 1.185,2.653 1.185,4.189c-0,1.548 -0.44,2.993 -1.202,4.218c2.702,-1.38 4.78,-3.216 5.789,-4.199c-0.989,-0.968 -3.063,-2.814 -5.772,-4.208Z"/></svg>